<?xml version="1.0" encoding="UTF-8"?>
<svg id="Layer_2" data-name="Layer 2" xmlns="http://www.w3.org/2000/svg" viewBox="0 0 609 171.2">
  <g id="Layer_1-2" data-name="Layer 1">
    <g>
      <path d="M334.28,59.76l-12.55.04c-.9.44-2.26,1.79-2.84,2.67v46.16c.66.89,1.93,2.14,2.8,2.73l12.88.03,2.52-2.81v-46.42s-2.81-2.4-2.81-2.4Z"/>
      <path d="M0,0v171.2h609V0H0ZM73.91,120.65c0,3.17-2.57,5.74-5.74,5.74h-13.28c-3.17,0-5.74-2.57-5.74-5.74v-13.28c0-3.17,2.57-5.74,5.74-5.74h13.28c3.17,0,5.74,2.57,5.74,5.74v13.28ZM130.01,118.37c0,4.43-3.59,8.02-8.02,8.02h-30.67c-4.43,0-8.02-3.59-8.02-8.02v-15.29c0-5.96-4.83-10.8-10.8-10.8h-15.02c-4.43,0-8.02-3.59-8.02-8.02v-31.55c0-4.43,3.59-8.02,8.02-8.02h30.1c4.43,0,8.02,3.59,8.02,8.02v15.25c0,6.48,5.25,11.73,11.73,11.73h14.66c4.43,0,8.02,3.59,8.02,8.02v30.66ZM130.01,62.98c0,4.03-3.26,7.29-7.29,7.29h-11c-4.03,0-7.29-3.26-7.29-7.29v-11c0-4.03,3.26-7.29,7.29-7.29h11c4.03,0,7.29,3.26,7.29,7.29v11ZM211.03,126.75h-26.19s-11.65-11.48-11.65-11.48v-59.34s11.64-11.52,11.64-11.52h26.2s11.76,11.58,11.76,11.58v16.75s-4.52,4.48-4.52,4.48l-6.66-.05-4.37-4.32.03-10.43c-.56-.79-1.99-2.16-2.88-2.63l-12.5.04c-1.02,0-2.52,1.74-3.03,2.63l-.02,46.25,2.68,2.83,13.16-.03,2.56-2.51.02-10.68,4.29-4.26,6.78-.07,4.45,4.41.02,16.83-11.77,11.52ZM287.79,126.75l-40.75-.02-4.41-4.54V48.98s4.41-4.52,4.41-4.52l6.73-.06,4.44,4.65.07,59.65,2.68,2.83,26.82-.03,4.41,4.36v6.53s-4.4,4.36-4.4,4.36ZM352.47,115.18l-11.48,11.53-25.87.07-11.63-11.59v-59.29s11.51-11.47,11.51-11.47h25.99s11.49,11.46,11.49,11.46v59.29ZM421.13,105.52l-21.33,21.24-6.2-.02-21.31-21.27v-56.69s4.42-4.35,4.42-4.35l6.55-.04,4.45,4.3v50.45s9.09,9.08,9.09,9.08l8.93-8.98-.02-50.26,4.14-4.5,7.07-.04,4.25,4.48-.03,56.61ZM473.41,111.35l12.45.02,4.46,4.37.06,6.46-4.35,4.51-40.41.04-4.45-4.3v-6.67s4.49-4.45,4.49-4.45l12.36.02v-51.54s-12.35-.02-12.35-.02l-4.51-4.45.04-6.64,4.19-4.27,40.29-.05,4.71,4.5-.06,6.46-4.45,4.44h-12.46s0,51.56,0,51.56ZM525.98,75.36l2.57,2.6,16.86-.02,4.57,4.47.03,6.39-4.46,4.45h-16.97s-2.58,2.57-2.58,2.57l-.04,12.96,2.7,2.76,26.83-.03,4.42,4.41-.03,6.52-4.38,4.32h-40.54s-4.64-4.54-4.64-4.54V48.93s4.41-4.51,4.41-4.51h40.71s4.42,4.33,4.42,4.33l.06,6.55-4.53,4.52-26.84-.03-2.59,2.58v12.99Z"/>
    </g>
  </g>
</svg>